<svg width="196" height="23" viewBox="0 0 196 23" fill="none" xmlns="http://www.w3.org/2000/svg">
<path id="Subtract" opacity="0.7" fill-rule="evenodd" clip-rule="evenodd" d="M166.645 0L166.001 1.1675L170.958 9.75332L180.473 9.9385L185.07 1.60565L184.143 0H166.645ZM165.503 0L164.853 1.17867L170.374 10.7422L181.057 10.9501L186.218 1.59447L185.298 0H196V1.75065L187.388 1.75065L181.867 11.3141L187.388 20.8776L196 20.8776V23H185.563L186.489 21.3968L180.967 11.8333H169.925L164.403 21.3968L165.329 23H0V0H165.503ZM184.409 23H166.483L165.558 21.3968L170.502 12.8333L180.39 12.8333L185.334 21.3968L184.409 23ZM196 2.75065V19.8776L187.966 19.8776L183.021 11.3141L187.966 2.75065L196 2.75065Z" fill="#E84A4A"/>
</svg>
